<svg
    class="icon icon-tabler icon-tabler-arrow-big-right-lines-filled"
    width="24"
    height="24"
    viewBox="0 0 24 24"
    stroke-width="2"
    stroke="currentColor"
    fill="none"
    stroke-linecap="round"
    stroke-linejoin="round"
    xmlns="http://www.w3.org/2000/svg"
>
    <path
    fill-rule="evenodd"
    clip-rule="evenodd"
    d="M11.8468 6.1158C11.9486 6.03097 12.08 5.99005 12.212 6.00205C12.3441 6.01406 12.4659 6.07799 12.5508 6.1798L15.8838 10.1798C15.9649 10.2821 16.0029 10.412 15.9895 10.5418C15.9761 10.6717 15.9125 10.7911 15.8122 10.8747C15.7119 10.9583 15.5829 10.9993 15.4528 10.989C15.3227 10.9788 15.2017 10.918 15.1158 10.8198L11.7828 6.8198C11.698 6.71794 11.657 6.58656 11.669 6.45455C11.681 6.32253 11.745 6.20069 11.8468 6.1158Z"
    fill="#309EDD"
    />
    <path
    fill-rule="evenodd"
    clip-rule="evenodd"
    d="M11.8468 14.8836C11.745 14.7987 11.681 14.6768 11.669 14.5448C11.657 14.4128 11.698 14.2814 11.7828 14.1796L15.1158 10.1796C15.2017 10.0813 15.3227 10.0206 15.4528 10.0103C15.5829 10.0001 15.7119 10.0411 15.8122 10.1247C15.9125 10.2082 15.9761 10.3277 15.9895 10.4575C16.0029 10.5874 15.9649 10.7173 15.8838 10.8196L12.5508 14.8196C12.4659 14.9214 12.3441 14.9853 12.212 14.9973C12.08 15.0093 11.9486 14.9684 11.8468 14.8836Z"
    fill="#309EDD"
    />
    <path
    fill-rule="evenodd"
    clip-rule="evenodd"
    d="M16 10.5C16 10.6326 15.9473 10.7598 15.8536 10.8536C15.7598 10.9473 15.6326 11 15.5 11H5.5C5.36739 11 5.24021 10.9473 5.14645 10.8536C5.05268 10.7598 5 10.6326 5 10.5C5 10.3674 5.05268 10.2402 5.14645 10.1464C5.24021 10.0527 5.36739 10 5.5 10H15.5C15.6326 10 15.7598 10.0527 15.8536 10.1464C15.9473 10.2402 16 10.3674 16 10.5Z"
    fill="#309EDD"
    />
</svg>